<svg xmlns:inkscape="http://www.inkscape.org/namespaces/inkscape" xmlns:sodipodi="http://sodipodi.sourceforge.net/DTD/sodipodi-0.dtd" xmlns="http://www.w3.org/2000/svg" xmlns:svg="http://www.w3.org/2000/svg" width="339.34766pt" height="75.027351pt" viewBox="0 0 339.34764 75.02735" version="1.1" id="svg225" sodipodi:docname="kano.svg" inkscape:version="1.2.2 (732a01da63, 2022-12-09)" inkscape:export-filename="kano-web.png" inkscape:export-xdpi="96" inkscape:export-ydpi="96">
  <sodipodi:namedview id="namedview227" pagecolor="#ffffff" bordercolor="#666666" borderopacity="1.0" inkscape:showpageshadow="2" inkscape:pageopacity="0.0" inkscape:pagecheckerboard="0" inkscape:deskcolor="#d1d1d1" inkscape:document-units="pt" showgrid="false" inkscape:zoom="1.5986513" inkscape:cx="278.98517" inkscape:cy="-51.293238" inkscape:window-width="1920" inkscape:window-height="1009" inkscape:window-x="307" inkscape:window-y="1072" inkscape:window-maximized="1" inkscape:current-layer="svg225" showguides="false"/>
  <defs id="defs177"/>
  <path fill-rule="evenodd" fill="#0063b1" fill-opacity="1" d="M -5.4430409e-8,1.507812 H 15.96094 V 73.746097 H -5.4430409e-8 Z M 53.23828,1.507812 21.53906,35.523437 55.72266,73.746097 H 74.83203 L 42.03906,35.492187 73.21484,1.507812 Z m 0,0" id="path183" style="fill:#ffffff"/>
  <path fill-rule="nonzero" fill="#0063b1" fill-opacity="1" d="M 163.25781,73.781247 132.16797,0.72656201 H 117.45312 L 86.36719,73.781247 h 16.26953 l 6.63281,-16.26953 5.69922,-14.09375 9.63672,-23.51953 9.63672,23.51953 5.69922,14.09375 6.63281,16.26953 z m 0,0" id="path185" style="fill:#ffffff"/>
  <g fill="#0063b1" fill-opacity="1" id="g189" transform="translate(-227.3164,-45.054688)" style="fill:#ffffff">
    <g id="use187" transform="translate(399.3981,118.8376)" style="fill:#ffffff">
      <path d="m 73.15625,0 v -72.53125 h -15.75 V -27.875 L 23.421875,-72.53125 H 8.703125 V 0 h 15.75 V -46.109375 L 59.578125,0 Z m 0,0" id="path451" style="fill:#ffffff"/>
    </g>
  </g>
  <path fill-rule="nonzero" fill="#0063b1" fill-opacity="1" d="m 339.34766,37.511718 v -0.207031 c 0,-5.179687 -0.94922,-10.03125 -2.84766,-14.558594 -1.90234,-4.523437 -4.55859,-8.460937 -7.98047,-11.8125 C 325.10156,7.582031 321.04297,4.921875 316.34375,2.953125 311.64844,0.98437501 306.5,0 300.90234,0 c -5.59375,0 -10.75781,0.98437501 -15.48828,2.953125 -4.73437,1.96875 -8.80859,4.664062 -12.23047,8.082031 -3.41797,3.421875 -6.09375,7.394531 -8.03125,11.917969 -1.93359,4.527343 -2.90234,9.378906 -2.90234,14.558593 v 0.210938 c 0,5.179691 0.95312,10.031251 2.85156,14.558591 1.89844,4.52344 4.5586,8.46094 7.98047,11.8125 3.41797,3.35156 7.47656,6.01172 12.17578,7.98047 4.69531,1.96875 9.84375,2.95313 15.4375,2.95313 5.59766,0 10.76172,-0.98438 15.49219,-2.95313 4.73437,-1.96875 8.80859,-4.66406 12.23047,-8.08594 3.41797,-3.41797 6.09375,-7.39062 8.03125,-11.91406 1.93359,-4.52734 2.89844,-9.37891 2.89844,-14.562499 z m -16.6836,0.210938 c 0,3.105471 -0.53515,6.027341 -1.60547,8.753901 -1.07031,2.73047 -2.55468,5.12891 -4.45703,7.20313 -1.89844,2.07031 -4.19531,3.69531 -6.89062,4.87109 -2.69141,1.17188 -5.62891,1.76172 -8.8086,1.76172 -3.24609,0 -6.19922,-0.60547 -8.85937,-1.8164 -2.66016,-1.20704 -4.97266,-2.84766 -6.94141,-4.92188 -1.96875,-2.07031 -3.48828,-4.48828 -4.55859,-7.25391 -1.07031,-2.76171 -1.60938,-5.69921 -1.60938,-8.808589 v -0.207031 c 0,-3.109375 0.53907,-6.027344 1.60938,-8.753906 1.07031,-2.730469 2.55469,-5.128906 4.45312,-7.203125 1.90235,-2.074219 4.17969,-3.695313 6.83985,-4.871094 2.66015,-1.171875 5.61328,-1.761719 8.85937,-1.761719 3.17969,0 6.11719,0.605469 8.8086,1.8125 2.69531,1.210938 5.02734,2.851563 6.99609,4.921875 1.96875,2.074219 3.48828,4.492188 4.55859,7.257813 1.07032,2.761719 1.60547,5.699219 1.60547,8.804687 z m 0,0" id="path191" style="fill:#ffffff"/>
</svg>